<svg xmlns="http://www.w3.org/2000/svg" xmlns:xlink="http://www.w3.org/1999/xlink" width="1080" zoomAndPan="magnify" viewBox="0 0 810 809.999993" height="1080" preserveAspectRatio="xMidYMid meet" version="1.0"><defs><clipPath id="4118333ef3"><path d="M 128 69.613281 L 682 69.613281 L 682 740.113281 L 128 740.113281 Z M 128 69.613281 " clip-rule="nonzero"/></clipPath></defs><path fill="#ffffff" d="M 9.605469 197.949219 C 17.257812 96.945312 96.945312 17.257812 197.949219 9.605469 C 266.121094 4.445312 342.84375 0 405 0 C 467.15625 0 543.878906 4.445312 612.050781 9.605469 C 713.054688 17.257812 792.746094 96.945312 800.394531 197.949219 C 805.554688 266.121094 810 342.84375 810 405 C 810 467.15625 805.554688 543.878906 800.394531 612.050781 C 792.746094 713.054688 713.054688 792.746094 612.050781 800.394531 C 543.878906 805.554688 467.15625 810 405 810 C 342.84375 810 266.121094 805.554688 197.949219 800.394531 C 96.945312 792.746094 17.257812 713.054688 9.605469 612.050781 C 4.441406 543.878906 0 467.15625 0 405 C 0 342.84375 4.441406 266.121094 9.605469 197.949219 Z M 9.605469 197.949219 " fill-opacity="1" fill-rule="nonzero"/><path fill="#ffffff" d="M 238.945312 189 C 211.394531 188.863281 188.988281 211.160156 188.988281 238.714844 L 188.988281 493.953125 C 188.988281 521.410156 211.246094 543.667969 238.699219 543.667969 L 320.21875 543.667969 L 392.695312 616.144531 C 399.167969 622.617188 409.660156 622.617188 416.132812 616.144531 L 488.609375 543.667969 L 570.125 543.667969 C 597.582031 543.667969 619.839844 521.410156 619.839844 493.953125 L 619.839844 239.773438 C 619.839844 212.367188 597.664062 190.132812 570.257812 190.058594 L 360.269531 189.492188 C 351.117188 189.46875 343.675781 196.867188 343.652344 206.019531 C 343.625 215.171875 351.027344 222.609375 360.175781 222.632812 L 570.167969 223.199219 C 579.304688 223.226562 586.695312 230.636719 586.695312 239.773438 L 586.695312 493.953125 C 586.695312 503.105469 579.277344 510.523438 570.125 510.523438 L 481.746094 510.523438 C 477.351562 510.523438 473.136719 512.269531 470.03125 515.378906 L 404.414062 580.992188 L 338.796875 515.378906 C 335.691406 512.269531 331.476562 510.523438 327.082031 510.523438 L 238.699219 510.523438 C 229.546875 510.523438 222.128906 503.105469 222.128906 493.953125 L 222.128906 238.714844 C 222.128906 229.53125 229.597656 222.097656 238.78125 222.144531 L 271.761719 222.304688 C 280.914062 222.351562 288.367188 214.96875 288.414062 205.816406 C 288.460938 196.664062 281.078125 189.210938 271.925781 189.164062 Z M 238.945312 189 " fill-opacity="1" fill-rule="evenodd"/><path fill="#ffffff" d="M 343.667969 360.070312 C 343.667969 332.617188 365.929688 310.359375 393.382812 310.359375 L 415.480469 310.359375 C 442.933594 310.359375 465.195312 332.617188 465.195312 360.070312 L 465.195312 382.167969 C 465.195312 409.621094 442.933594 431.882812 415.480469 431.882812 L 393.382812 431.882812 C 365.929688 431.882812 343.667969 409.621094 343.667969 382.167969 Z M 393.382812 343.503906 C 384.230469 343.503906 376.8125 350.921875 376.8125 360.070312 L 376.8125 382.167969 C 376.8125 391.320312 384.230469 398.738281 393.382812 398.738281 L 415.480469 398.738281 C 424.632812 398.738281 432.050781 391.320312 432.050781 382.167969 L 432.050781 360.070312 C 432.050781 350.921875 424.632812 343.503906 415.480469 343.503906 Z M 393.382812 343.503906 " fill-opacity="1" fill-rule="evenodd"/><path fill="#ffffff" d="M 266.335938 371.121094 C 266.335938 300.957031 323.214844 244.074219 393.382812 244.074219 L 448.617188 244.074219 C 500.480469 244.074219 542.523438 286.117188 542.523438 337.976562 L 542.523438 376.644531 C 542.523438 407.152344 517.792969 431.882812 487.285156 431.882812 C 456.777344 431.882812 432.046875 407.152344 432.046875 376.644531 L 432.046875 371.121094 C 432.046875 361.96875 439.46875 354.546875 448.617188 354.546875 C 457.769531 354.546875 465.191406 361.96875 465.191406 371.121094 L 465.191406 376.644531 C 465.191406 388.847656 475.082031 398.738281 487.285156 398.738281 C 499.488281 398.738281 509.378906 388.847656 509.378906 376.644531 L 509.378906 337.976562 C 509.378906 304.417969 482.175781 277.21875 448.617188 277.21875 L 393.382812 277.21875 C 341.519531 277.21875 299.480469 319.257812 299.480469 371.121094 C 299.480469 422.980469 341.519531 465.023438 393.382812 465.023438 L 444.632812 465.023438 C 459.214844 465.023438 473.589844 461.628906 486.628906 455.109375 L 507.492188 444.679688 C 515.679688 440.585938 525.632812 443.90625 529.726562 452.089844 C 533.820312 460.273438 530.5 470.230469 522.316406 474.324219 L 501.453125 484.753906 C 483.808594 493.574219 464.355469 498.167969 444.632812 498.167969 L 393.382812 498.167969 C 323.214844 498.167969 266.335938 441.285156 266.335938 371.121094 Z M 266.335938 371.121094 " fill-opacity="1" fill-rule="evenodd"/><g clip-path="url(#4118333ef3)"><path fill="#fda502" d="M 128.386719 112.164062 L 177.734375 740.109375 L 572.890625 707.542969 L 532.75 644.628906 L 602.902344 627.734375 L 643.183594 630.316406 L 681.378906 505.957031 L 669.617188 397.328125 L 643.984375 69.613281 Z M 128.386719 112.164062 " fill-opacity="1" fill-rule="nonzero"/></g><path fill="#030200" d="M 572.890625 707.542969 C 559.296875 693.339844 544.066406 680.855469 529.808594 667.347656 C 520.460938 658.472656 511.308594 649.261719 501.152344 641.410156 C 486.757812 630.289062 481.679688 615.28125 481.125 598.304688 C 480.433594 576.417969 480.347656 554.503906 479.074219 532.617188 C 478.464844 522.324219 477.878906 512.035156 475.191406 502.019531 C 467.894531 475.085938 451 463.238281 424.316406 463.878906 C 397.601562 464.515625 370.972656 467.707031 344.285156 469.589844 C 339.125 469.953125 338.128906 472.835938 337.601562 477.164062 C 335.351562 496.359375 332.855469 515.5 330.5 534.695312 C 326.78125 565.042969 323.148438 595.390625 319.457031 625.738281 C 318.292969 635.28125 317.710938 635.945312 308.308594 636.722656 C 274.910156 639.441406 241.480469 642.132812 208.082031 644.796875 C 200.871094 645.378906 200.730469 645.296875 201.648438 638 C 206.195312 600.96875 210.855469 563.933594 215.433594 526.875 C 219.289062 495.582031 223.035156 464.265625 226.945312 432.949219 C 231.328125 398.160156 235.878906 363.402344 240.289062 328.644531 C 244.226562 297.6875 248.027344 266.703125 251.914062 235.746094 C 253.605469 222.347656 255.492188 208.976562 256.988281 195.578125 C 257.542969 190.667969 259.125 188.589844 264.589844 188.171875 C 325.976562 183.59375 387.335938 178.574219 448.726562 173.914062 C 476.023438 171.832031 503.289062 168.753906 530.726562 171.5 C 545.871094 173.027344 560.65625 175.9375 574.554688 182.347656 C 595.414062 191.972656 610.421875 207.589844 618.769531 228.839844 C 632.003906 262.460938 634.109375 297.160156 625.707031 332.28125 C 618.4375 362.710938 599.933594 384.320312 572.058594 398.21875 C 562.238281 403.101562 551.808594 406.34375 541.265625 409.757812 C 542.820312 412.753906 545.648438 412.613281 547.894531 413.363281 C 560.488281 417.46875 569.699219 425.652344 576.328125 436.832031 C 583.511719 448.953125 587.121094 462.214844 588.421875 476.195312 C 591.03125 504.101562 591.53125 532.117188 593.082031 560.078125 C 594.136719 579.246094 597.910156 597.804688 607.589844 614.671875 C 609.535156 618.027344 610.78125 622.824219 616.523438 621.910156 C 622.515625 620.96875 628.230469 620.746094 631.476562 613.671875 C 645.066406 584.101562 659.214844 554.808594 673.113281 525.375 C 674.5 522.464844 675.527344 519.382812 677.882812 517.054688 C 679.9375 531.007812 681.15625 545.042969 681.269531 559.164062 C 679.105469 559.441406 679.132812 560.828125 679.578125 562.4375 C 668.3125 585.933594 656.828125 609.34375 645.957031 633.035156 C 643.152344 639.136719 639.601562 641.992188 633.027344 642.382812 C 612.472656 643.660156 591.972656 645.433594 571.417969 646.652344 C 562.488281 647.179688 553.832031 649.957031 544.707031 648.347656 C 544.429688 649.09375 544.121094 649.816406 543.84375 650.566406 C 563.261719 668.457031 582.679688 686.351562 602.375 704.492188 C 597.21875 706.515625 579.242188 708.207031 572.722656 707.542969 Z M 516.9375 314.691406 C 516.828125 313.085938 516.6875 311.476562 516.605469 309.867188 C 515.246094 288.3125 504.621094 275.496094 483.789062 270.003906 C 475.578125 267.839844 467.226562 267.257812 458.90625 267.839844 C 429.390625 269.867188 399.929688 272.308594 370.417969 274.414062 C 366.394531 274.691406 364.648438 276.300781 364.230469 280.128906 C 363.59375 285.871094 362.703125 291.613281 362.011719 297.355469 C 358.792969 323.820312 355.546875 350.3125 352.46875 376.800781 C 351.609375 384.207031 351.859375 384.347656 358.988281 383.792969 C 384.648438 381.796875 410.335938 379.824219 435.992188 377.632812 C 447.839844 376.609375 459.710938 375.414062 471.25 372.226562 C 502.042969 363.710938 517.851562 343.765625 516.964844 314.75 Z M 516.9375 314.691406 " fill-opacity="1" fill-rule="nonzero"/><path fill="#faa300" d="M 516.9375 314.691406 C 517.851562 343.707031 502.015625 363.652344 471.25 372.167969 C 459.710938 375.359375 447.867188 376.554688 435.992188 377.578125 C 410.335938 379.796875 384.675781 381.738281 358.988281 383.738281 C 351.832031 384.292969 351.609375 384.152344 352.46875 376.746094 C 355.546875 350.253906 358.792969 323.792969 362.011719 297.300781 C 362.703125 291.558594 363.621094 285.84375 364.230469 280.074219 C 364.648438 276.246094 366.394531 274.636719 370.417969 274.359375 C 399.933594 272.277344 429.390625 269.808594 458.90625 267.785156 C 467.226562 267.203125 475.578125 267.785156 483.789062 269.949219 C 504.621094 275.441406 515.246094 288.230469 516.605469 309.8125 C 516.714844 311.421875 516.828125 313.027344 516.9375 314.636719 Z M 516.9375 314.691406 " fill-opacity="1" fill-rule="nonzero"/></svg>