<?xml version="1.0" encoding="UTF-8"?>
<svg id="Camada_2" data-name="Camada 2" xmlns="http://www.w3.org/2000/svg" viewBox="0 0 1106 259.39">
  <defs>
    <style>
      .cls-1 {
        fill: #fcfefd;
      }

      .cls-1, .cls-2, .cls-3, .cls-4, .cls-5, .cls-6, .cls-7, .cls-8, .cls-9, .cls-10, .cls-11, .cls-12, .cls-13, .cls-14, .cls-15, .cls-16 {
        stroke-width: 0px;
      }

      .cls-2 {
        fill: #f92c2c;
      }

      .cls-3 {
        fill: #faa300;
      }

      .cls-4 {
        fill: #fdf000;
      }

      .cls-5 {
        fill: #030300;
      }

      .cls-6 {
        fill: #fff;
      }

      .cls-7 {
        fill: #ec4599;
      }

      .cls-8 {
        fill: #030202;
      }

      .cls-9 {
        fill: #fbfbfb;
      }

      .cls-10 {
        fill: #fda502;
      }

      .cls-11 {
        fill: #1b78f2;
      }

      .cls-12 {
        fill: #fffcfd;
      }

      .cls-13 {
        fill: #fdfeff;
      }

      .cls-14 {
        fill: #20c678;
      }

      .cls-15 {
        fill: #fffdfd;
      }

      .cls-16 {
        fill: #030200;
      }
    </style>
  </defs>
  <g id="Camada_1-2" data-name="Camada 1">
    <g>
      <path class="cls-2" d="m509.78,213.33c-1.72,3.07-1.94,6.63-3.21,9.84-.58,1.47.3,1.78,1.58,1.78,4.53,0,9.06.08,13.59.07,5.42-.01,5.46.12,5.06,5.41-.25,3.34-.33,6.72-.08,10.05.16,2.12-.24,4.16-.16,6.24.05,1.28-.68,1.59-1.74,1.6-.81,0-1.63,0-2.44,0-70.3,0-140.59,0-210.89,0-4.11,0-4.23,0-4.34-4.03-.1-3.46.04-6.94.18-10.4.13-3.12-.04-6.24.06-9.37.21-6.36.03-12.74,0-19.11,0-12.83.01-25.66.02-38.49.35-10.89.46-21.77.3-32.66.46-.45.41-1.03.46-1.61.16-1.65-.89-3.32-.48-4.78,1.02-3.66.13-7.33.31-10.97.47-10.06.17-20.16.18-30.24,0-7.19,0-14.37.04-21.56.01-2.46.09-2.5,2.53-2.59.81-.03,1.62,0,2.43,0,13.45-.02,26.9-.04,40.35-.06,1.16.02,2.32.06,3.48.06,50.9,0,101.8,0,152.7,0,.24,8.35.24,16.7,0,25.05-2.55-.02-5.11-.04-7.66-.06-12.76-.12-25.53-.25-38.29-.36-3.02-.03-6.04,0-9.06.05-.91.01-1.91-.08-2.25,1.14-.56,2.01-1.13,4.01-1.73,6-.38,1.28.04,2.02,1.36,2.24.57.1,1.21.04,1.71.29,2.22,1.09,4.48,2.34,4.98,4.97.42,2.22-1.56,3.44-2.89,4.86-.23.25-.55.42-.83.63-4.63,3.5-9.25,7.01-13.88,10.51-13.8,10.42-27.6,20.85-41.4,31.26-.36.27-.75.53-1.44.05,1.78-6.58,3.39-13.3,5.45-19.89,2.32-7.4,4.33-14.88,6.37-22.36,1.37-5.04,4.41-8.63,9.23-9.98,2.85-.8,3.6-2.42,4.2-4.68.21-.78.31-1.6.47-2.39.59-2.85.59-2.91-2.31-2.94-7.66-.07-15.33-.06-22.99-.11-13.7-.08-27.4-.16-41.09-.31-1.59-.02-2.62.23-3.11,1.97-.35,1.23-.71,2.44-.96,3.69-.62,3.17-.66,3.22,2.28,4.33,6.47,2.43,8.11,7.86,6.68,12.72-1.64,5.55-3.3,11.1-4.75,16.69-2.89,11.08-6.29,22-9.23,33.06-1.46,5.47-3.16,10.9-4.67,16.36-1.79,6.48-3.49,12.99-5.47,19.41-.96,3.1-2.14,6.14-3.72,8.98-3.13,5.58-7.13,10.09-14.17,10.33-1.38.05-1.72.94-1.98,2-.43,1.81-.77,3.62-1.45,5.37-.77,1.99-.43,2.47,1.72,2.48,3.71.02,7.43-.1,11.14-.07,18.24.13,36.48.3,54.72.41,5.17.03,5.17-.03,6.36-4.97,1.08-4.48,1.03-4.38-3.22-6.5-4.94-2.47-6.11-5.99-4.59-10.58.4-1.21.81-2.42,1.15-3.64,2.8-10.16,5.53-20.33,8.45-30.45.43-1.48.53-3.13,1.29-4.41.78-.11,1.11.2,1.35.62,5.4,9.09,11.48,17.72,17.7,26.25,4.31,5.9,8.61,11.81,12.99,17.66,3.15,4.21,6.86,7.84,11.48,10.49,6.5,3.73,13.58,5.34,20.96,5.74,5.68.31,11.37.4,17.05.49,7.31.1,14.62.1,21.93.15,1.01,0,1.85-.19,2.15-1.31.56-2.13,1.15-4.25,1.69-6.38.31-1.22,0-1.96-1.43-2.15-6.58-.9-11.45-4.67-15.8-9.39-3.25-3.52-5.72-7.59-8.33-11.55-7.53-11.43-14.89-22.97-22.31-34.48-1.64-2.54-3.23-5.1-4.89-7.62-.68-1.03-.74-1.91.3-2.72.55-.43,1.05-.92,1.59-1.35,15.29-12.08,30.56-24.19,45.9-36.21,4.38-3.43,8.51-7.19,13.24-10.16.05,1.27.15,2.54.15,3.81,0,33.73,0,67.47,0,101.2,0,2.2-.06,4.39-.09,6.59Z"/>
      <polygon class="cls-10" points="0 15.34 17.79 241.71 160.24 229.97 145.77 207.29 171.06 201.2 185.58 202.13 199.35 157.3 195.11 118.14 185.87 0 0 15.34"/>
      <polygon class="cls-6" points="168.66 229.41 206.19 226.02 199.35 161.66 182.77 199.32 159.82 206.35 146.7 204.47 148.88 211.15 168.66 229.41"/>
      <path class="cls-8" d="m509.73,87.54c.24-8.35.24-16.7,0-25.05.05-10.09.11-20.18.15-30.28.02-5.25,0-5.25,5.3-5.25h201.32c.7,0,1.39,0,2.09,0,2.59.04,2.62.04,2.62,2.65.01,11.61,0,23.21.01,34.82,0,1.27.08,2.55.12,3.82-.05.8-.13,1.61-.14,2.42,0,20.77,0,41.54,0,62.32,0,2.43.03,4.86.05,7.29,0,15.06.01,30.13.02,45.19-.41,3.62.32,7.26-.3,10.87-.86.08-1.79,0-2.25,1.01.6.99,1.57.41,2.37.56.03,6.9.03,13.81.13,20.71.02,1.67-.57,2.21-2.2,2.16-2.76-.09-5.52,0-8.28.02-58.62,0-117.24-.01-175.86-.02-6.96,0-13.93,0-20.89,0q-4.08,0-4.12-3.97c-.01-1.16-.06-2.32-.1-3.48.03-2.2.08-4.4.09-6.59,0-33.73,0-67.47,0-101.2,0-1.27-.1-2.54-.15-3.81.29-4.73.26-9.45.02-14.18Zm203.5,111.42c-.2-1.16-1.01-1.5-1.6-2-17.57-14.65-35.16-29.28-52.69-43.97-1.39-1.16-2.77-1.44-4.45-1.44-10.81.03-21.63-.29-32.42.14-5.83.24-10.71-.83-14.65-5.24-.86-.96-2.25-1.46-2.84-3.15,1.47,0,2.61,0,3.75,0,10.92.06,21.85.02,32.77.25,4.16.09,8.02-.56,11.86-2.12,9.36-3.82,17.95-8.79,24.63-16.51,9.91-11.44,13.3-24.79,10.72-39.61-2.36-13.54-8.91-24.6-20.56-32.22-6.52-4.26-13.6-6.84-21.63-6.51-7.08.29-14.17.13-21.26.15-33.35.07-66.7.13-100.05.22-1.16,0-2.44-.36-3.52.37.27,1.21,1.07,1.77,1.69,2.44,4.32,4.7,8.61,9.44,13.03,14.05,1.4,1.46,1.91,2.95,1.91,4.95-.05,36.47-.05,72.95,0,109.42,0,1.96-.45,3.59-1.6,5.16-3.29,4.49-6.51,9.04-9.74,13.58-.44.62-1.25,1.17-.58,2.14.32.04.67.11,1.01.11,23.47.05,46.95.09,70.42.12.74,0,1.68.32,2.07-.96-3.94-4.6-7.89-9.3-11.96-13.91-1.23-1.39-1.79-2.77-1.83-4.66-.15-7.9-.52-15.79-.74-23.68-.09-3.2-.01-6.41-.01-10.03,2.05.97,3.24,2.42,4.63,3.55,19.58,16.05,39.15,32.09,58.66,48.22,1.74,1.44,3.41,2.05,5.64,2.02,18.94-.24,37.88-.37,56.82-.55.79,0,1.61.17,2.53-.33Z"/>
      <path class="cls-16" d="m160.24,229.97c-4.9-5.12-10.39-9.62-15.53-14.49-3.37-3.2-6.67-6.52-10.33-9.35-5.19-4.01-7.02-9.42-7.22-15.54-.25-7.89-.28-15.79-.74-23.68-.22-3.71-.43-7.42-1.4-11.03-2.63-9.71-8.72-13.98-18.34-13.75-9.63.23-19.23,1.38-28.85,2.06-1.86.13-2.22,1.17-2.41,2.73-.81,6.92-1.71,13.82-2.56,20.74-1.34,10.94-2.65,21.88-3.98,32.82-.42,3.44-.63,3.68-4.02,3.96-12.04.98-24.09,1.95-36.13,2.91-2.6.21-2.65.18-2.32-2.45,1.64-13.35,3.32-26.7,4.97-40.06,1.39-11.28,2.74-22.57,4.15-33.86,1.58-12.54,3.22-25.07,4.81-37.6,1.42-11.16,2.79-22.33,4.19-33.49.61-4.83,1.29-9.65,1.83-14.48.2-1.77.77-2.52,2.74-2.67,22.13-1.65,44.25-3.46,66.38-5.14,9.84-.75,19.67-1.86,29.56-.87,5.46.55,10.79,1.6,15.8,3.91,7.52,3.47,12.93,9.1,15.94,16.76,4.77,12.12,5.53,24.63,2.5,37.29-2.62,10.97-9.29,18.76-19.34,23.77-3.54,1.76-7.3,2.93-11.1,4.16.56,1.08,1.58,1.03,2.39,1.3,4.54,1.48,7.86,4.43,10.25,8.46,2.59,4.37,3.89,9.15,4.36,14.19.94,10.06,1.12,20.16,1.68,30.24.38,6.91,1.74,13.6,5.23,19.68.7,1.21,1.15,2.94,3.22,2.61,2.16-.34,4.22-.42,5.39-2.97,4.9-10.66,10-21.22,15.01-31.83.5-1.05.87-2.16,1.72-3,.74,5.03,1.18,10.09,1.22,15.18-.78.1-.77.6-.61,1.18-4.06,8.47-8.2,16.91-12.12,25.45-1.01,2.2-2.29,3.23-4.66,3.37-7.41.46-14.8,1.1-22.21,1.54-3.22.19-6.34,1.19-9.63.61-.1.27-.21.53-.31.8,7,6.45,14,12.9,21.1,19.44-1.86.73-8.34,1.34-10.69,1.1Zm-20.17-141.62c-.04-.58-.09-1.16-.12-1.74-.49-7.77-4.32-12.39-11.83-14.37-2.96-.78-5.97-.99-8.97-.78-10.64.73-21.26,1.61-31.9,2.37-1.45.1-2.08.68-2.23,2.06-.23,2.07-.55,4.14-.8,6.21-1.16,9.54-2.33,19.09-3.44,28.64-.31,2.67-.22,2.72,2.35,2.52,9.25-.72,18.51-1.43,27.76-2.22,4.27-.37,8.55-.8,12.71-1.95,11.1-3.07,16.8-10.26,16.48-20.72Z"/>
      <path class="cls-4" d="m944.24,215.87c-24.69,0-49.38,0-74.07,0-1.39,0-2.77.1-4.16.15-3.83-.03-7.66-.05-11.48-.08-4.88-.04-4.27.48-4.27-4.26-.01-48.25-.01-96.5-.03-144.75,0-1.39-.13-2.77-.19-4.16.07-1.39.19-2.77.19-4.16.01-15.45,0-30.89,0-46.34,0-.81.05-1.63,0-2.44-.11-1.45.45-2.2,1.97-2.14.7.03,1.39,0,2.09,0,30.09,0,60.18,0,90.28,0,.35,0,.7,0,1.05,0,2.91.05,2.96.05,2.96,2.82,0,20.09-.02,40.18-.04,60.27-.58.03-1.16.07-1.73.1q-2.34.12-2.4,2.59c-.01.7,0,1.39,0,2.09,0,45.38,0,90.75,0,136.13,0,1.39-.1,2.78-.15,4.16Zm-26.47-83.94c0-13.82-.01-27.65,0-41.47,0-3.86.8-4.67,4.67-4.8,2.21-.08,4.42-.07,6.62,0,1.51.05,2.05-.56,2.03-2.05-.06-4.06-.04-8.13,0-12.2.01-1.29-.45-1.97-1.82-1.88-.69.05-1.39,0-2.09,0-17.9,0-35.79,0-53.69,0-.7,0-1.4.04-2.09,0-1.29-.09-1.94.43-1.94,1.78,0,4.07,0,8.13-.07,12.2-.02,1.56.74,2,2.15,1.96,2.09-.06,4.19-.1,6.27.02,2.06.11,2.88.97,3.14,3.02.09.69.04,1.39.04,2.09,0,27.3,0,54.6,0,81.89,0,.58.02,1.16,0,1.74-.14,2.89-1.18,3.99-4.02,4.09-2.09.07-4.19.08-6.27,0-1.46-.06-2.1.42-2.09,1.97.06,5.11.07,10.22,0,15.33-.02,1.71.67,2.32,2.28,2.15.58-.06,1.16,0,1.74,0,17.66,0,35.33,0,52.99,0,.7,0,1.4-.03,2.09,0,1.49.07,2.06-.63,2.04-2.09-.04-5.11-.05-10.22,0-15.33.02-1.52-.61-2.07-2.08-2.02-1.97.06-3.95.06-5.93,0-2.34-.08-3.65-1.25-3.94-3.53-.12-.92-.05-1.86-.05-2.78,0-13.36,0-26.72,0-40.08Zm-17.92-109.83c-5.73.05-10.83.47-15.83,1.57-4.21.92-8.38,2.1-11.73,5.02-2.9,2.53-2.88,5.51-.04,8.06,1.84,1.66,4.06,2.66,6.37,3.5,4.85,1.76,9.89,2.55,15,2.95,8.89.68,17.64-.07,26.13-2.95,2.43-.83,4.77-1.89,6.65-3.7,2.56-2.46,2.56-5.09.05-7.58-1.86-1.84-4.21-2.87-6.62-3.74-6.65-2.41-13.59-2.9-19.97-3.13Z"/>
      <path class="cls-14" d="m850.03,62.78c.07,1.39.19,2.77.19,4.16.01,48.25.01,96.5.03,144.75,0,4.74-.6,4.22,4.27,4.26,3.83.03,7.66.05,11.48.08.51,11.36,1.05,22.71,1.53,34.07.11,2.55.04,2.65-2.63,2.8-7.53.41-15.06.77-22.6,1.09-18.67.79-37.34,1.54-56,2.33-23.54,1-47.07,2.02-70.6,3.04-2.75.12-2.74.12-2.87-2.9-.48-11.01-.98-22.02-1.47-33.02-.04-.91.14-1.88-.62-2.62,2.76-.02,5.52-.11,8.28-.02,1.63.05,2.23-.49,2.2-2.16-.1-6.9-.1-13.81-.13-20.71-.04-.52-.08-1.05-.12-1.57.62-3.61-.11-7.26.3-10.88.62,1.97,1.12,3.99,1.87,5.92,8.07,20.81,23.35,33.65,44.54,39.7,15.39,4.39,30.99,4.36,46.58,1.2,11.48-2.32,22.28-6.46,31.94-13.3,1.88-1.33,2.79-2.67,2.65-5.13-.49-8.35-.69-16.71-1.06-25.06-.07-1.57.01-3.2-.54-4.67-1.19-.22-1.56.69-2.13,1.18-3.95,3.45-8.15,6.56-12.71,9.14-14.47,8.19-30.01,10.89-46.4,8.74-6.35-.83-12.54-2.44-18.16-5.72-9.08-5.31-14.13-13.19-15.14-23.65-.25-2.55-.11-2.67,2.34-2.09,14.37,3.37,28.93,4.24,43.6,2.97,8.74-.76,17.18-2.73,25.12-6.62,16.69-8.16,24.48-26.24,21.49-41.14-1.89-9.4-5.67-17.62-13.06-23.97-5.38-4.62-11.55-7.74-18.3-9.79-12.24-3.73-24.66-4.28-37.2-1.84-12.05,2.34-23.11,6.97-32.73,14.7-11.19,9-18.76,20.43-22.72,34.24-.02-2.43-.05-4.86-.05-7.29,0-20.77,0-41.54,0-62.32,0-.81.09-1.61.14-2.42,14.72-.62,29.44-1.25,44.17-1.88,6.72-.29,13.45-.59,20.17-.87,17.39-.73,34.79-1.44,52.18-2.17,4.06-.17,8.11-.37,12.17-.56Z"/>
      <path class="cls-11" d="m944.24,215.87c.05-1.39.15-2.78.15-4.16,0-45.38,0-90.75,0-136.13,0-.7-.01-1.39,0-2.09q.05-2.48,2.4-2.59c.58-.03,1.16-.07,1.73-.1,1.39.04,2.78.13,4.17.13,49.62,0,99.25,0,148.87.01,5,0,4.4-.63,4.4,4.49.01,57.04.01,114.08,0,171.12,0,4.77.61,4.26-4.27,4.26-51.02.01-102.04.01-153.06,0-4.87,0-4.23.5-4.26-4.28-.07-10.22-.1-20.44-.15-30.66Zm149.52-52.71c.12-9.47-.63-18.23-2.93-26.83-6.01-22.52-19.93-37.42-42.56-43.56-15.41-4.18-30.99-4.06-46.55-.44-9.43,2.19-17.97,6.2-25.39,12.46-9.87,8.33-15.61,19.16-18.77,31.49-2.91,11.36-3.5,22.93-2.68,34.57.57,8.12,1.88,16.12,4.57,23.86,7.04,20.29,21.11,32.85,41.86,38.05,11.51,2.88,23.18,3.39,34.94,2.07,8.96-1.01,17.6-3.19,25.61-7.44,14.59-7.73,23.5-19.99,28.17-35.59,2.86-9.54,3.93-19.31,3.73-28.63Z"/>
      <polygon class="cls-6" points="234.02 45.53 195.24 44.09 195.38 116.01 241.78 67.24 234.02 45.53"/>
      <path class="cls-7" d="m198.18,152.45c-.58-.64-.83-1.43-.8-2.24.19-4.19-.57-8.31-.89-12.46-.44-5.64-.36-11.34-1.67-16.88,0-1.24-.09-2.51,0-3.77.32-4.72.47-9.44.14-14.17-.01-1.75.86-2.99,2.08-4.18,3.48-3.41,6.91-6.88,9.29-11.21.62-1.13,1.1-2.3,1.4-3.55.5-2.09,0-3.94-1.52-5.44-2.66-2.65-4.73-5.72-6.6-8.94-.77-1.33-1.73-2.5-3.08-3.24-.89-.49-1.43-1.03-1.43-2.14.03-5.42.02-10.84.32-16.39,1.6,1.73,2.87,3.61,4.51,5.17,2.15,2.04,4.63,3.5,7.4,4.46,2.65.92,3.74.58,5.39-1.69,2.99-4.12,7.27-6.79,11-10.06.56-.49,1.23-.61,1.94-.62.81,0,1.63,0,2.44,0,40.31,0,80.61,0,120.92,0,.58,0,1.16-.01,1.74,0,2.62.06,2.65.07,2.67,2.74.05,4.87.07,9.75.1,14.62-13.45.02-26.9.04-40.35.06-.81,0-1.62-.02-2.43,0-2.44.09-2.52.14-2.53,2.59-.03,7.19-.03,14.37-.04,21.56,0,10.08.29,20.18-.18,30.24-.17,3.64.71,7.31-.31,10.97-.41,1.46.64,3.13.48,4.78-.06.58,0,1.16-.46,1.61-1.3.08-2,1.1-2.84,1.87-8.3,7.64-17.24,14.45-26.62,20.7-8.89,5.92-17.99,11.5-27.55,16.3-4.17,2.1-8.57,3.54-13.38,3.23-3.79-.24-6.63-1.91-8.46-5.25-1.12-2.05-1.64-4.32-2.42-6.49-1.04-2.9.02-4.41,2.26-6.06,6.64-4.88,12.83-10.32,18.8-16.01,10.79-10.29,20.67-21.33,28.6-34,4.07-6.5,7.93-13.14,9.51-20.77.97-4.68.96-9.39-2.28-13.25-3.65-4.36-7.63-8.48-12.74-11.21-5.02-2.69-10.25-3.45-15.79-1.58-3.37,1.14-6.3,2.96-9.02,5.15-10.79,8.74-20.31,18.67-28.26,30.08-10.79,15.48-18.05,32.14-17.17,51.49.09,1.88-.68,3.1-2.19,4Z"/>
      <path class="cls-7" d="m198.74,177.67c-.17-.58-.17-1.08.61-1.18,1.71-.19,2.9-1.4,4.27-2.24,2.06-1.26,2.09-1.32,3.59.67,1.83,2.43,3.95,4.57,6.15,6.63,11.68,10.96,25.64,14.57,41.2,12.25,12.14-1.81,22.99-7.02,33.28-13.56,6.67-4.24,13-8.95,19.57-13.32,0,12.83-.01,25.66-.02,38.49-1.48-.4-3-.26-4.51-.26-32.04,0-64.08,0-96.12,0-.81,0-1.63.02-2.44,0-2.57-.1-2.62-.19-2.76-2.84-.39-7.05-1.39-14.05-1.52-21.12-.02-1.3-.37-2.53-1.31-3.51Z"/>
      <path class="cls-15" d="m509.73,87.54c.25,4.73.28,9.45-.02,14.18-4.73,2.97-8.87,6.73-13.24,10.16-15.34,12.02-30.61,24.13-45.9,36.21-.55.43-1.04.92-1.59,1.35-1.04.81-.98,1.69-.3,2.72,1.66,2.52,3.25,5.09,4.89,7.62,7.42,11.5,14.79,23.04,22.31,34.48,2.61,3.96,5.08,8.03,8.33,11.55,4.35,4.72,9.22,8.49,15.8,9.39,1.43.2,1.74.94,1.43,2.15-.54,2.13-1.12,4.25-1.69,6.38-.3,1.12-1.13,1.32-2.15,1.31-7.31-.05-14.62-.05-21.93-.15-5.69-.08-11.38-.18-17.05-.49-7.38-.4-14.46-2.01-20.96-5.74-4.61-2.65-8.32-6.28-11.48-10.49-4.38-5.85-8.68-11.76-12.99-17.66-6.22-8.53-12.31-17.16-17.7-26.25-.25-.41-.57-.72-1.35-.62-.75,1.27-.86,2.93-1.29,4.41-2.92,10.12-5.65,20.3-8.45,30.45-.34,1.23-.75,2.43-1.15,3.64-1.51,4.59-.35,8.11,4.59,10.58,4.25,2.12,4.3,2.02,3.22,6.5-1.19,4.94-1.19,5.01-6.36,4.97-18.24-.11-36.48-.29-54.72-.41-3.71-.03-7.43.09-11.14.07-2.15-.01-2.49-.5-1.72-2.48.68-1.75,1.03-3.57,1.45-5.37.25-1.07.6-1.96,1.98-2,7.04-.24,11.04-4.75,14.17-10.33,1.59-2.83,2.77-5.88,3.72-8.98,1.98-6.42,3.68-12.93,5.47-19.41,1.51-5.46,3.21-10.88,4.67-16.36,2.94-11.06,6.34-21.99,9.23-33.06,1.46-5.59,3.11-11.15,4.75-16.69,1.44-4.86-.21-10.3-6.68-12.72-2.94-1.1-2.9-1.15-2.28-4.33.25-1.25.61-2.47.96-3.69.49-1.74,1.53-1.98,3.11-1.97,13.7.14,27.4.22,41.09.31,7.66.05,15.33.04,22.99.11,2.9.03,2.9.09,2.31,2.94-.16.8-.26,1.61-.47,2.39-.6,2.26-1.35,3.89-4.2,4.68-4.83,1.35-7.86,4.93-9.23,9.98-2.04,7.47-4.05,14.96-6.37,22.36-2.06,6.59-3.67,13.31-5.45,19.89.68.48,1.07.22,1.44-.05,13.8-10.42,27.6-20.84,41.4-31.26,4.63-3.5,9.25-7.01,13.88-10.51.28-.21.6-.38.83-.63,1.33-1.41,3.31-2.63,2.89-4.86-.49-2.63-2.76-3.88-4.98-4.97-.5-.24-1.14-.19-1.71-.29-1.32-.22-1.74-.96-1.36-2.24.6-1.99,1.17-4,1.73-6,.34-1.21,1.34-1.13,2.25-1.14,3.02-.04,6.04-.07,9.06-.05,12.76.11,25.53.24,38.29.36,2.55.02,5.11.04,7.66.06Z"/>
      <path class="cls-12" d="m307.42,166.92c-6.57,4.37-12.9,9.09-19.57,13.32-10.29,6.54-21.14,11.75-33.28,13.56-15.56,2.32-29.52-1.29-41.2-12.25-2.2-2.06-4.33-4.21-6.15-6.63-1.5-1.99-1.53-1.93-3.59-.67-1.37.84-2.56,2.05-4.27,2.24-.05-5.09-.48-10.15-1.22-15.18.09-2.96-.57-5.92.05-8.86,1.51-.9,2.28-2.11,2.19-3.99-.88-19.36,6.38-36.01,17.17-51.49,7.95-11.41,17.47-21.34,28.26-30.08,2.71-2.2,5.65-4.02,9.02-5.15,5.54-1.87,10.77-1.11,15.79,1.58,5.11,2.73,9.08,6.86,12.74,11.21,3.24,3.86,3.24,8.57,2.28,13.25-1.58,7.64-5.44,14.27-9.51,20.77-7.93,12.67-17.81,23.72-28.6,34-5.97,5.69-12.16,11.13-18.8,16.01-2.25,1.65-3.3,3.16-2.26,6.06.78,2.17,1.3,4.44,2.42,6.49,1.82,3.33,4.67,5.01,8.46,5.25,4.81.3,9.21-1.14,13.38-3.23,9.55-4.8,18.66-10.38,27.55-16.3,9.38-6.25,18.32-13.06,26.62-20.7.84-.77,1.53-1.79,2.84-1.87.16,10.89.05,21.78-.3,32.66Zm-82.56-33.47c1.9.08,2.64-.97,3.51-1.63,13.86-10.49,25.2-23.2,33.61-38.44,1.73-3.14,3.37-6.35,4.56-9.75.49-1.41.67-2.77-.72-3.75-1.26-.88-2.19.13-3.1.78-4.17,2.94-8.16,6.09-11.91,9.56-9.4,8.7-16.82,18.8-21.91,30.57-1.73,4-3.06,8.16-4.04,12.67Z"/>
      <path class="cls-9" d="m713.23,198.96c-.92.5-1.74.32-2.53.33-18.94.18-37.88.32-56.82.55-2.23.03-3.91-.59-5.64-2.02-19.51-16.13-39.09-32.17-58.66-48.22-1.39-1.14-2.58-2.58-4.63-3.55,0,3.61-.08,6.82.01,10.03.22,7.89.59,15.79.74,23.68.04,1.89.6,3.27,1.83,4.66,4.07,4.6,8.02,9.31,11.96,13.91-.39,1.28-1.33.96-2.07.96-23.47-.03-46.95-.07-70.42-.12-.34,0-.69-.07-1.01-.11-.67-.97.14-1.52.58-2.14,3.23-4.54,6.45-9.09,9.74-13.58,1.15-1.57,1.6-3.2,1.6-5.16-.05-36.47-.05-72.95,0-109.42,0-2-.51-3.49-1.91-4.95-4.42-4.61-8.71-9.35-13.03-14.05-.62-.67-1.41-1.22-1.69-2.44,1.08-.73,2.36-.37,3.52-.37,33.35-.09,66.7-.15,100.05-.22,7.09-.02,14.18.14,21.26-.15,8.03-.33,15.11,2.25,21.63,6.51,11.65,7.62,18.2,18.67,20.56,32.22,2.58,14.81-.81,28.16-10.72,39.61-6.68,7.72-15.27,12.69-24.63,16.51-3.84,1.56-7.7,2.21-11.86,2.12-10.92-.23-21.84-.19-32.77-.25-1.14,0-2.28,0-3.75,0,.59,1.69,1.98,2.19,2.84,3.15,3.94,4.41,8.82,5.48,14.65,5.24,10.79-.44,21.61-.11,32.42-.14,1.68,0,3.06.28,4.45,1.44,17.53,14.7,35.12,29.32,52.69,43.97.6.5,1.4.84,1.6,2Zm-131.02-105.1c0,10.92-.01,21.84,0,32.76,0,2.8.05,2.83,2.9,2.85,12.67.08,25.33,0,37.99.29,3.99.09,7.02-1.01,10.04-3.56,7.24-6.09,12.25-13.38,13.01-22.98.57-7.18.56-14.41-.89-21.51-1.89-9.27-6.14-16.97-14.78-21.69-1.68-.91-3.35-1.43-5.29-1.43-13.36.05-26.73.02-40.09.03-2.86,0-2.9.03-2.91,2.83-.02,10.8,0,21.6,0,32.41Z"/>
      <path class="cls-1" d="m721.26,140.28c3.96-13.81,11.53-25.24,22.72-34.24,9.62-7.74,20.69-12.36,32.73-14.7,12.54-2.44,24.96-1.89,37.2,1.84,6.74,2.05,12.92,5.17,18.3,9.79,7.39,6.35,11.17,14.57,13.06,23.97,2.99,14.91-4.8,32.98-21.49,41.14-7.95,3.89-16.39,5.86-25.12,6.62-14.68,1.27-29.23.4-43.6-2.97-2.45-.58-2.59-.46-2.34,2.09,1.01,10.46,6.06,18.34,15.14,23.65,5.62,3.29,11.81,4.89,18.16,5.72,16.39,2.15,31.94-.56,46.4-8.74,4.56-2.58,8.76-5.69,12.71-9.14.57-.5.93-1.4,2.13-1.18.55,1.47.47,3.1.54,4.67.38,8.35.57,16.72,1.06,25.06.15,2.46-.77,3.8-2.65,5.13-9.66,6.84-20.45,10.98-31.94,13.3-15.59,3.15-31.19,3.19-46.58-1.2-21.19-6.05-36.47-18.89-44.54-39.7-.75-1.93-1.25-3.94-1.87-5.92,0-15.06-.01-30.13-.02-45.19Zm55.52,6.64c2.78,0,5.57.09,8.35-.02,2.89-.12,5.79-.33,8.66-.68,3.92-.48,7.79-1.26,11.36-3.07,3.39-1.72,5.78-4.28,6.55-8.08,1.23-6.09-1.41-11.67-6.85-14.69-2.05-1.13-4.22-1.96-6.53-2.31-7.46-1.14-14.85-.81-21.96,1.81-10.91,4.02-17.69,11.94-20.95,23-.48,1.63-.06,2.25,1.64,2.56,6.53,1.2,13.09,1.78,19.73,1.47Z"/>
      <path class="cls-3" d="m140.07,88.35c.33,10.46-5.38,17.65-16.47,20.72-4.16,1.15-8.43,1.58-12.71,1.95-9.25.8-18.5,1.5-27.76,2.22-2.58.2-2.66.15-2.35-2.52,1.11-9.55,2.28-19.09,3.44-28.64.25-2.07.58-4.13.8-6.21.15-1.38.78-1.96,2.23-2.06,10.64-.75,21.26-1.64,31.9-2.37,3-.21,6.01,0,8.97.78,7.51,1.98,11.34,6.59,11.83,14.37.04.58.08,1.16.12,1.74Z"/>
      <path class="cls-5" d="m917.77,131.93c0,13.36,0,26.72,0,40.08,0,.93-.07,1.87.05,2.78.29,2.28,1.59,3.45,3.94,3.53,1.97.06,3.95.06,5.93,0,1.46-.05,2.09.5,2.08,2.02-.05,5.11-.05,10.22,0,15.33.01,1.47-.56,2.16-2.04,2.09-.7-.03-1.39,0-2.09,0-17.66,0-35.33,0-52.99,0-.58,0-1.17-.05-1.74,0-1.61.16-2.31-.45-2.28-2.15.07-5.11.06-10.22,0-15.33-.02-1.54.63-2.02,2.09-1.97,2.09.08,4.18.07,6.27,0,2.83-.1,3.88-1.2,4.02-4.09.03-.58,0-1.16,0-1.74,0-27.3,0-54.6,0-81.89,0-.7.05-1.4-.04-2.09-.26-2.05-1.08-2.9-3.14-3.02-2.09-.11-4.18-.08-6.27-.02-1.41.04-2.18-.4-2.15-1.96.06-4.06.07-8.13.07-12.2,0-1.35.65-1.86,1.94-1.78.69.05,1.39,0,2.09,0,17.9,0,35.79,0,53.69,0,.7,0,1.4.04,2.09,0,1.37-.09,1.83.59,1.82,1.88-.03,4.07-.05,8.13,0,12.2.02,1.49-.53,2.1-2.03,2.05-2.21-.07-4.42-.08-6.62,0-3.87.14-4.66.94-4.67,4.8-.02,13.82,0,27.65,0,41.47Z"/>
      <path class="cls-5" d="m899.85,22.1c6.38.23,13.33.72,19.97,3.13,2.41.87,4.76,1.9,6.62,3.74,2.51,2.49,2.51,5.12-.05,7.58-1.88,1.81-4.21,2.87-6.65,3.7-8.49,2.89-17.24,3.64-26.13,2.95-5.11-.39-10.15-1.19-15-2.95-2.31-.84-4.53-1.84-6.37-3.5-2.84-2.55-2.86-5.53.04-8.06,3.35-2.93,7.53-4.1,11.73-5.02,5-1.1,10.1-1.52,15.83-1.57Z"/>
      <path class="cls-13" d="m1093.77,163.16c.19,9.32-.88,19.09-3.73,28.63-4.67,15.59-13.58,27.86-28.17,35.59-8.01,4.24-16.65,6.43-25.61,7.44-11.76,1.32-23.43.81-34.94-2.07-20.75-5.19-34.82-17.75-41.86-38.05-2.68-7.73-4-15.74-4.57-23.86-.82-11.64-.23-23.21,2.68-34.57,3.16-12.32,8.91-23.15,18.77-31.49,7.42-6.26,15.96-10.27,25.39-12.46,15.55-3.62,31.14-3.74,46.55.44,22.63,6.14,36.55,21.04,42.56,43.56,2.3,8.6,3.05,17.36,2.93,26.83Zm-96.74-.54c0,2.78.03,5.57,0,8.35-.05,4.8.79,9.45,2.28,14,6.81,20.81,30.49,20.86,41.4,12.26,5.87-4.63,8.89-10.83,10.3-18.01.86-4.36.85-8.77.79-13.18-.09-6.6.49-13.23-.78-19.79-2.51-13-10.23-21.51-23.86-22.89-12.67-1.28-23.6,5.27-27.74,16.91-1.48,4.17-2.37,8.48-2.38,12.94,0,3.13,0,6.27,0,9.4Z"/>
      <path class="cls-7" d="m224.85,133.44c.98-4.51,2.31-8.67,4.04-12.67,5.09-11.76,12.51-21.86,21.91-30.57,3.75-3.47,7.74-6.62,11.91-9.56.91-.64,1.85-1.66,3.1-.78,1.39.98,1.22,2.34.72,3.75-1.19,3.4-2.83,6.61-4.56,9.75-8.41,15.24-19.75,27.96-33.61,38.44-.87.66-1.61,1.72-3.51,1.63Z"/>
      <path class="cls-8" d="m582.21,93.86c0-10.8-.01-21.6,0-32.41,0-2.8.04-2.83,2.91-2.83,13.36-.01,26.73.02,40.09-.03,1.94,0,3.61.51,5.29,1.43,8.64,4.72,12.9,12.42,14.78,21.69,1.45,7.11,1.46,14.34.89,21.51-.76,9.6-5.77,16.88-13.01,22.98-3.03,2.55-6.06,3.65-10.04,3.56-12.66-.3-25.33-.21-37.99-.29-2.86-.02-2.9-.05-2.9-2.85-.02-10.92,0-21.84,0-32.76Z"/>
      <path class="cls-14" d="m776.78,146.91c-6.64.32-13.2-.27-19.73-1.47-1.7-.31-2.12-.93-1.64-2.56,3.27-11.07,10.04-18.98,20.95-23,7.11-2.62,14.5-2.95,21.96-1.81,2.31.35,4.48,1.18,6.53,2.31,5.44,3.01,8.08,8.6,6.85,14.69-.77,3.8-3.16,6.36-6.55,8.08-3.57,1.81-7.44,2.59-11.36,3.07-2.87.35-5.77.56-8.66.68-2.78.11-5.57.02-8.35.02Z"/>
      <path class="cls-11" d="m997.02,162.62c0-3.13,0-6.27,0-9.4,0-4.46.9-8.77,2.38-12.94,4.15-11.64,15.08-18.19,27.74-16.91,13.63,1.38,21.36,9.9,23.86,22.89,1.27,6.55.69,13.19.78,19.79.06,4.41.07,8.81-.79,13.18-1.41,7.17-4.43,13.38-10.3,18.01-10.91,8.6-34.59,8.55-41.4-12.26-1.49-4.56-2.34-9.2-2.28-14,.03-2.78,0-5.57,0-8.35Z"/>
    </g>
  </g>
</svg>